<?xml version="1.0" encoding="UTF-8" standalone="no"?>
<!DOCTYPE svg PUBLIC "-//W3C//DTD SVG 1.1//EN" "http://www.w3.org/Graphics/SVG/1.1/DTD/svg11.dtd">
<svg width="100%" height="100%" viewBox="0 0 3010 400" version="1.1" xmlns="http://www.w3.org/2000/svg" xmlns:xlink="http://www.w3.org/1999/xlink" xml:space="preserve" xmlns:serif="http://www.serif.com/" style="fill-rule:evenodd;clip-rule:evenodd;stroke-linejoin:round;stroke-miterlimit:2;">
    <g transform="matrix(3.78072,0,0,3.78072,-0.756144,-0.378072)">
        <path d="M106.1,79.8L106.1,26.2C106,23.9 105.9,21.5 105.5,19.2C105.1,16.9 104.4,14.7 103.3,12.6C102.2,10.5 100.9,8.6 99.2,7C97.5,5.3 95.6,4 93.6,2.9C91.5,1.8 89.3,1.1 87,0.7C84.7,0.3 82.4,0.1 80,0.1L26.3,0.1C25.7,0.1 25.1,0.1 24.6,0.2C22.9,0.3 21.1,0.4 19.4,0.7C17.7,1 16,1.5 14.4,2.1C13.9,2.3 13.3,2.6 12.8,2.8C11.2,3.6 9.8,4.6 8.4,5.7C8,6.1 7.5,6.5 7.1,6.9C5.4,8.6 4.1,10.5 3,12.5C1.9,14.6 1.2,16.8 0.8,19.1C0.4,21.4 0.3,23.7 0.2,26.1L0.2,79.8C0.3,82.1 0.4,84.5 0.8,86.8C1.2,89.1 1.9,91.3 3,93.4C4.1,95.5 5.4,97.4 7.1,99C8.8,100.7 10.7,102 12.7,103.1C14.8,104.2 17,104.9 19.3,105.3C21.6,105.7 23.9,105.9 26.3,105.9L80,105.9C82.3,105.8 84.7,105.7 87,105.3C89.3,104.9 91.5,104.2 93.6,103.1C95.7,102 97.6,100.7 99.2,99C100.9,97.3 102.2,95.4 103.3,93.4C104.4,91.3 105.1,89.1 105.5,86.8C105.9,84.5 106.1,82.2 106.1,79.8Z" style="fill:rgb(240,81,56);fill-rule:nonzero;"/>
    </g>
    <g transform="matrix(0.529756,0,0,0.529756,64.5717,64.5714)">
        <path d="M259.119,460.031C259.119,473.437 248.244,484.297 234.853,484.297L183.822,484.297C170.416,484.297 159.556,473.438 159.556,460.031L159.556,448.828C159.556,435.422 170.415,424.562 183.822,424.562L234.853,424.562C248.244,424.562 259.119,435.421 259.119,448.828L259.119,460.031Z" style="fill:white;fill-rule:nonzero;"/>
        <path d="M36.9,365.688L32.634,365.688C19.243,365.688 8.368,376.563 8.368,389.954L8.368,423.47C8.368,436.876 14.618,447.751 25.321,447.751L27.993,447.751C39.571,447.751 36.899,458.61 36.899,472.017L36.899,487.736C36.9,501.125 47.775,512 61.166,512L98.26,512C111.666,512 122.526,501.125 122.526,487.734L122.526,389.953C122.526,376.562 111.667,365.687 98.26,365.687L36.9,365.687L36.9,365.688Z" style="fill:white;fill-rule:nonzero;"/>
        <path d="M338.322,161.438C326.9,161.438 317.025,169.407 314.619,180.563L301.056,243.094C298.65,254.25 288.759,262.219 277.337,262.219L125.385,262.219C111.994,262.219 101.119,273.094 101.119,286.485L101.119,304.86C101.119,318.251 111.994,329.126 125.385,329.126L130.369,329.126C143.76,329.126 154.635,340.001 154.635,353.407L154.635,365.485C154.635,378.876 165.51,389.751 178.901,389.751L367.026,389.751C378.417,389.751 388.276,381.813 390.729,370.657L430.042,190.876C431.62,183.72 429.854,176.22 425.245,170.501C420.636,164.751 413.682,161.438 406.323,161.438L338.322,161.438Z" style="fill:white;fill-rule:nonzero;"/>
        <path d="M487.947,108.75C485.759,120.172 475.775,128.438 464.103,128.438L358.588,128.438C351.354,128.438 344.479,125.235 339.9,119.657C335.275,114.063 333.384,106.719 334.744,99.626L349.994,19.72C352.182,8.281 362.182,0 373.838,0L479.369,0C486.603,0 493.447,3.219 498.057,8.813C502.682,14.391 504.557,21.735 503.198,28.844L487.947,108.75Z" style="fill:white;fill-rule:nonzero;"/>
    </g>
    <g transform="matrix(2.85595,0,0,1,-960.128,84.1211)">
        <path d="M515.117,179.498L515.117,156.451C517.192,161.725 519.334,165.68 521.546,168.317C523.757,170.953 526.048,172.272 528.419,172.272C531.678,172.272 533.952,169.847 535.24,164.996C536.528,160.146 537.172,151.113 537.172,137.897L537.172,56.256L524.144,56.256L524.144,39.654L544.079,39.654L544.079,137.897C544.079,156.256 542.877,169.244 540.472,176.861C538.067,184.479 534.049,188.287 528.419,188.287C526.23,188.287 524.053,187.571 521.887,186.139C519.722,184.707 517.465,182.493 515.117,179.498Z" style="fill:white;fill-rule:nonzero;"/>
        <path d="M583.437,130.475L575.469,130.475C571.799,130.475 569.035,132.314 567.177,135.992C565.319,139.671 564.391,145.156 564.391,152.447C564.391,159.023 565.086,164.134 566.476,167.779C567.867,171.425 569.793,173.248 572.255,173.248C575.72,173.248 578.444,169.814 580.427,162.945C582.411,156.077 583.414,146.588 583.437,134.479L583.437,130.475ZM589.762,123.053L589.762,185.455L583.437,185.455L583.437,169.244C582.092,175.755 580.399,180.556 578.359,183.649C576.319,186.741 573.839,188.287 570.922,188.287C567.023,188.287 563.912,185.146 561.587,178.863C559.261,172.581 558.099,164.166 558.099,153.619C558.099,141.445 559.529,132.2 562.39,125.885C565.251,119.57 569.451,116.412 574.991,116.412L583.437,116.412L583.437,113.58C583.414,104.856 582.639,98.525 581.111,94.586C579.584,90.647 577.145,88.678 573.794,88.678C571.651,88.678 569.485,89.557 567.297,91.315C565.109,93.072 562.977,95.644 560.903,99.029L560.903,81.061C563.228,78.522 565.456,76.617 567.588,75.348C569.719,74.078 571.788,73.444 573.794,73.444C576.963,73.444 579.67,74.778 581.915,77.447C584.16,80.117 585.978,84.121 587.369,89.459C588.235,92.714 588.851,96.735 589.215,101.52C589.58,106.305 589.762,113.483 589.762,123.053Z" style="fill:white;fill-rule:nonzero;"/>
        <path d="M608.535,171.686L608.535,227.057L602.209,227.057L602.209,76.08L608.535,76.08L608.535,90.045C609.584,84.641 610.98,80.524 612.724,77.692C614.468,74.86 616.479,73.444 618.759,73.444C623.386,73.444 627.017,78.554 629.65,88.776C632.283,98.997 633.599,113.157 633.599,131.256C633.599,149.029 632.277,162.978 629.633,173.102C626.988,183.225 623.364,188.287 618.759,188.287C616.434,188.287 614.399,186.871 612.655,184.039C610.911,181.207 609.538,177.089 608.535,171.686ZM627,130.865C627,116.933 626.23,106.419 624.692,99.322C623.153,92.226 620.868,88.678 617.836,88.678C614.781,88.678 612.467,92.242 610.894,99.371C609.321,106.5 608.535,116.998 608.535,130.865C608.535,144.667 609.321,155.149 610.894,162.311C612.467,169.472 614.781,173.053 617.836,173.053C620.868,173.053 623.153,169.505 624.692,162.408C626.23,155.312 627,144.798 627,130.865Z" style="fill:white;fill-rule:nonzero;"/>
        <path d="M667.759,130.475L659.792,130.475C656.121,130.475 653.357,132.314 651.5,135.992C649.642,139.671 648.713,145.156 648.713,152.447C648.713,159.023 649.408,164.134 650.799,167.779C652.189,171.425 654.115,173.248 656.577,173.248C660.042,173.248 662.766,169.814 664.75,162.945C666.733,156.077 667.736,146.588 667.759,134.479L667.759,130.475ZM674.085,123.053L674.085,185.455L667.759,185.455L667.759,169.244C666.414,175.755 664.721,180.556 662.681,183.649C660.641,186.741 658.162,188.287 655.244,188.287C651.346,188.287 648.234,185.146 645.909,178.863C643.584,172.581 642.421,164.166 642.421,153.619C642.421,141.445 643.852,132.2 646.712,125.885C649.573,119.57 653.773,116.412 659.313,116.412L667.759,116.412L667.759,113.58C667.736,104.856 666.961,98.525 665.434,94.586C663.906,90.647 661.467,88.678 658.116,88.678C655.973,88.678 653.808,89.557 651.619,91.315C649.431,93.072 647.299,95.644 645.225,99.029L645.225,81.061C647.55,78.522 649.778,76.617 651.91,75.348C654.041,74.078 656.11,73.444 658.116,73.444C661.285,73.444 663.992,74.778 666.237,77.447C668.483,80.117 670.301,84.121 671.691,89.459C672.557,92.714 673.173,96.735 673.538,101.52C673.902,106.305 674.085,113.483 674.085,123.053Z" style="fill:white;fill-rule:nonzero;"/>
        <path d="M715.972,117.682L715.972,185.455L709.646,185.455L709.646,117.682C709.646,107.851 709.042,100.625 707.834,96.002C706.626,91.38 704.734,89.069 702.158,89.069C699.217,89.069 696.955,92.047 695.37,98.004C693.786,103.961 692.994,112.506 692.994,123.639L692.994,185.455L686.702,185.455L686.702,76.08L692.994,76.08L692.994,92.486C694.111,86.236 695.627,81.5 697.542,78.278C699.457,75.055 701.725,73.444 704.346,73.444C708.244,73.444 711.157,77.106 713.083,84.43C715.009,91.754 715.972,102.838 715.972,117.682Z" style="fill:white;fill-rule:nonzero;"/>
        <rect x="725.683" y="114.752" width="36.246" height="16.504" style="fill:white;fill-rule:nonzero;"/>
        <path d="M774.375,39.654L801.252,204.01L794.755,204.01L767.844,39.654L774.375,39.654Z" style="fill:white;fill-rule:nonzero;"/>
        <path d="M835.754,23.932C832.722,38.776 830.459,53.57 828.966,68.317C827.473,83.063 826.726,97.923 826.726,112.897C826.726,127.805 827.473,142.649 828.966,157.428C830.459,172.207 832.722,187.083 835.754,202.057L830.282,202.057C826.84,186.562 824.276,171.474 822.589,156.793C820.902,142.112 820.059,127.48 820.059,112.897C820.059,98.378 820.902,83.763 822.589,69.049C824.276,54.335 826.84,39.296 830.282,23.932L835.754,23.932Z" style="fill:white;fill-rule:nonzero;"/>
        <path d="M888.173,98.639C886.828,95.644 885.46,93.463 884.07,92.096C882.679,90.729 881.152,90.045 879.488,90.045C875.567,90.045 872.569,93.561 870.495,100.592C868.42,107.623 867.383,117.779 867.383,131.061L867.383,185.455L861.057,185.455L861.057,76.08L867.383,76.08L867.383,97.467C868.432,89.72 870.044,83.779 872.221,79.645C874.398,75.511 876.98,73.444 879.966,73.444C881.516,73.444 882.964,73.997 884.309,75.104C885.654,76.21 886.942,77.936 888.173,80.279L888.173,98.639Z" style="fill:white;fill-rule:nonzero;"/>
        <path d="M929.137,121.783L929.137,130.572L901.885,130.572L901.885,131.158C901.702,146.067 902.7,156.777 904.877,163.287C907.054,169.798 910.125,173.053 914.092,173.053C916.098,173.053 918.195,172.141 920.383,170.319C922.572,168.496 924.908,165.729 927.393,162.018L927.393,179.889C925,182.688 922.692,184.788 920.469,186.188C918.246,187.587 916.098,188.287 914.023,188.287C908.074,188.287 903.423,183.193 900.072,173.004C896.721,162.815 895.046,148.769 895.046,130.865C895.046,113.417 896.687,99.485 899.97,89.069C903.252,78.652 907.629,73.444 913.1,73.444C917.979,73.444 921.825,78.164 924.641,87.604C927.456,97.044 928.955,108.437 929.137,121.783ZM922.845,116.51C922.572,108.958 921.609,102.431 919.956,96.93C918.303,91.429 915.927,88.678 912.827,88.678C909.795,88.678 907.299,91.542 905.338,97.272C903.378,103.001 902.306,109.446 902.124,116.608L922.845,116.51Z" style="fill:white;fill-rule:nonzero;"/>
        <path d="M962.339,129.889C962.339,116.412 961.57,106.175 960.031,99.176C958.493,92.177 956.253,88.678 953.312,88.678C950.235,88.678 947.887,92.177 946.268,99.176C944.65,106.175 943.841,116.412 943.841,129.889C943.841,143.365 944.655,153.636 946.285,160.699C947.915,167.763 950.28,171.295 953.381,171.295C956.276,171.295 958.493,167.747 960.031,160.651C961.57,153.554 962.339,143.3 962.339,129.889ZM968.631,178.424C968.631,194.83 967.275,207.265 964.562,215.729C961.849,224.192 957.86,228.424 952.594,228.424C950.862,228.424 949.049,227.968 947.157,227.057C945.265,226.145 943.373,224.811 941.481,223.053L941.481,205.279C943.715,208.274 945.744,210.488 947.568,211.92C949.391,213.352 951.067,214.069 952.594,214.069C955.991,214.069 958.464,211.432 960.014,206.158C961.564,200.885 962.339,192.519 962.339,181.061L962.339,168.072C961.336,174.192 959.969,178.75 958.236,181.744C956.504,184.739 954.395,186.236 951.91,186.236C947.442,186.236 943.875,181.126 941.208,170.904C938.54,160.683 937.207,147.011 937.207,129.889C937.207,112.701 938.54,98.997 941.208,88.776C943.875,78.554 947.442,73.444 951.91,73.444C954.372,73.444 956.458,74.843 958.168,77.643C959.877,80.442 961.268,84.772 962.339,90.631L962.339,76.471L968.631,76.471L968.631,178.424Z" style="fill:white;fill-rule:nonzero;"/>
        <path d="M985.967,76.471L1002.07,76.471L1002.07,171.49L1014.55,171.49L1014.55,185.455L983.3,185.455L983.3,171.49L995.781,171.49L995.781,90.436L985.967,90.436L985.967,76.471ZM995.781,33.99L1002.07,33.99L1002.07,56.647L995.781,56.647L995.781,33.99Z" style="fill:white;fill-rule:nonzero;"/>
        <path d="M1038.39,88.678C1035.19,88.678 1032.78,92.226 1031.14,99.322C1029.5,106.419 1028.68,116.933 1028.68,130.865C1028.68,144.733 1029.5,155.231 1031.14,162.36C1032.78,169.488 1035.19,173.053 1038.39,173.053C1041.6,173.053 1044.03,169.488 1045.67,162.36C1047.31,155.231 1048.13,144.733 1048.13,130.865C1048.13,116.933 1047.31,106.419 1045.67,99.322C1044.03,92.226 1041.6,88.678 1038.39,88.678ZM1038.39,73.444C1043.7,73.444 1047.76,78.359 1050.58,88.19C1053.39,98.02 1054.8,112.246 1054.8,130.865C1054.8,149.55 1053.4,163.792 1050.59,173.59C1047.79,183.388 1043.72,188.287 1038.39,188.287C1033.08,188.287 1029.02,183.388 1026.21,173.59C1023.41,163.792 1022.01,149.55 1022.01,130.865C1022.01,112.246 1023.41,98.02 1026.21,88.19C1029.02,78.359 1033.08,73.444 1038.39,73.444Z" style="fill:white;fill-rule:nonzero;"/>
        <path d="M1095.42,117.682L1095.42,185.455L1089.1,185.455L1089.1,117.682C1089.1,107.851 1088.49,100.625 1087.28,96.002C1086.08,91.38 1084.18,89.069 1081.61,89.069C1078.67,89.069 1076.4,92.047 1074.82,98.004C1073.24,103.961 1072.44,112.506 1072.44,123.639L1072.44,185.455L1066.15,185.455L1066.15,76.08L1072.44,76.08L1072.44,92.486C1073.56,86.236 1075.08,81.5 1076.99,78.278C1078.91,75.055 1081.17,73.444 1083.8,73.444C1087.69,73.444 1090.61,77.106 1092.53,84.43C1094.46,91.754 1095.42,102.838 1095.42,117.682Z" style="fill:white;fill-rule:nonzero;"/>
        <path d="M1113.55,23.932L1119.02,23.932C1122.46,39.296 1125.02,54.335 1126.71,69.049C1128.4,83.763 1129.24,98.378 1129.24,112.897C1129.24,127.545 1128.4,142.226 1126.71,156.94C1125.02,171.653 1122.46,186.692 1119.02,202.057L1113.55,202.057C1116.58,186.953 1118.84,172.011 1120.33,157.233C1121.83,142.454 1122.57,127.675 1122.57,112.897C1122.57,98.053 1121.83,83.242 1120.33,68.463C1118.84,53.684 1116.58,38.841 1113.55,23.932Z" style="fill:white;fill-rule:nonzero;"/>
        <rect x="1157.11" y="146.002" width="12.036" height="39.453" style="fill:white;fill-rule:nonzero;"/>
        <path d="M1219.24,79.889L1219.24,97.467C1217.44,94.472 1215.62,92.226 1213.8,90.729C1211.98,89.231 1210.12,88.483 1208.23,88.483C1205.38,88.483 1203.25,89.801 1201.85,92.438C1200.45,95.074 1199.75,99.095 1199.75,104.498C1199.75,109.381 1200.27,113.027 1201.32,115.436C1202.37,117.845 1204.98,120.188 1209.15,122.467L1211.68,123.834C1214.81,125.527 1217.17,128.912 1218.78,133.99C1220.38,139.069 1221.19,145.677 1221.19,153.815C1221.19,164.622 1219.84,173.069 1217.15,179.156C1214.46,185.244 1210.72,188.287 1205.94,188.287C1204.05,188.287 1202.06,187.718 1199.99,186.578C1197.91,185.439 1195.67,183.73 1193.25,181.451L1193.25,162.897C1195.6,166.347 1197.84,168.935 1199.99,170.66C1202.13,172.386 1204.16,173.248 1206.07,173.248C1208.86,173.248 1211.01,171.637 1212.54,168.414C1214.06,165.192 1214.83,160.683 1214.83,154.889C1214.83,146.555 1212.04,140.794 1206.45,137.604L1206.18,137.408L1203.82,136.041C1200.19,134.023 1197.55,130.621 1195.88,125.836C1194.22,121.051 1193.39,114.524 1193.39,106.256C1193.39,95.774 1194.63,87.685 1197.12,81.988C1199.6,76.292 1203.14,73.444 1207.75,73.444C1209.8,73.444 1211.77,73.981 1213.66,75.055C1215.56,76.129 1217.41,77.74 1219.24,79.889Z" style="fill:white;fill-rule:nonzero;"/>
        <path d="M1228.13,76.08L1234.35,76.08L1241.02,164.459L1246.49,108.014L1251.86,108.014L1257.4,164.459L1264.07,76.08L1270.29,76.08L1261.33,185.455L1255.31,185.455L1249.19,125.494L1243.11,185.455L1237.09,185.455L1228.13,76.08Z" style="fill:white;fill-rule:nonzero;"/>
        <path d="M1281.1,76.471L1297.2,76.471L1297.2,171.49L1309.68,171.49L1309.68,185.455L1278.43,185.455L1278.43,171.49L1290.91,171.49L1290.91,90.436L1281.1,90.436L1281.1,76.471ZM1290.91,33.99L1297.2,33.99L1297.2,56.647L1290.91,56.647L1290.91,33.99Z" style="fill:white;fill-rule:nonzero;"/>
        <path d="M1348.8,33.502L1348.8,48.444L1341.65,48.444C1339.4,48.444 1337.83,49.762 1336.95,52.399C1336.07,55.035 1335.63,59.707 1335.63,66.412L1335.63,76.08L1348.8,76.08L1348.8,90.045L1335.63,90.045L1335.63,185.455L1329.34,185.455L1329.34,90.045L1319.12,90.045L1319.12,76.08L1329.34,76.08L1329.34,68.463C1329.34,56.484 1330.31,47.662 1332.23,41.998C1334.16,36.334 1337.16,33.502 1341.24,33.502L1348.8,33.502Z" style="fill:white;fill-rule:nonzero;"/>
        <path d="M1375.61,45.026L1375.61,76.08L1389.9,76.08L1389.9,90.045L1375.61,90.045L1375.61,149.42C1375.61,157.493 1376.14,163.125 1377.21,166.315C1378.29,169.505 1380.15,171.1 1382.82,171.1L1389.9,171.1L1389.9,185.455L1382.21,185.455C1377.49,185.455 1374.16,182.753 1372.22,177.35C1370.28,171.946 1369.32,162.636 1369.32,149.42L1369.32,90.045L1359.09,90.045L1359.09,76.08L1369.32,76.08L1369.32,45.026L1375.61,45.026Z" style="fill:white;fill-rule:nonzero;"/>
    </g>
</svg>
